<?xml version="1.0" ?><svg style="enable-background:new 0 0 48 48;" version="1.1" viewBox="0 0 48 48" xml:space="preserve" xmlns="http://www.w3.org/2000/svg" xmlns:xlink="http://www.w3.org/1999/xlink"><g id="Icons"><path d="M30.77715,18.38429c1.18324-0.02649,2.37531,0.36204,3.06407,1.06845   c0.09713,0.10596,0.19426,0.21192,0.27374,0.33555c0.85653,1.2009,0.83004,2.66671,0.66226,3.94708   c-0.15894,1.25388-0.936,2.44596-1.50996,3.6292c-0.30906,0.6446-0.2914,1.13026,0.37086,1.43049   c0.60928,0.2649,1.28038,0.3797,1.90731,0.60928c0.95366,0.36204,2.0486,0.5563,2.81682,1.20973   c0.96249,0.82121,0.74173,2.21637,0.78588,3.39961H31.9339l-0.00031,0.00122c0-1.58345,0.12935-3.3811-0.9115-4.70623   c-0.62841-0.80005-1.81346-1.54392-2.74534-1.86052c0,0-0.13086-0.24655-0.21033-0.41432   c-0.58279-1.18324-1.12155-2.04457-1.2805-3.29845c-0.16777-1.28037-0.20309-2.74618,0.66226-3.94708   c0.07947-0.12362,0.16777-0.22958,0.27374-0.33555C28.41067,18.74633,29.59391,18.3578,30.77715,18.38429" style="fill:#0097D3;"/><path d="M19.57167,13.98687c1.51879-0.03532,3.03757,0.45917,3.92059,1.36867   c0.13245,0.13245,0.24724,0.27374,0.35321,0.42385c1.10377,1.54528,1.05962,3.41727,0.84769,5.05968   c-0.20309,1.60709-1.19207,3.13471-1.9338,4.65349c-0.39736,0.82121-0.37087,1.44815,0.47683,1.82784   c0.77705,0.34438,1.64241,0.48566,2.44596,0.78588c0.68875,0.26491,1.43048,0.45034,2.12807,0.72407h0.00883   c0.53864,0.20309,1.04196,0.45917,1.46581,0.82121c1.24505,1.05962,0.96249,2.85214,1.00664,4.3621h-7.8765H8.85186   c0.04415-1.50996-0.23841-3.30248,1.00664-4.3621c0.98015-0.83887,2.38414-1.07728,3.60271-1.54528   c0.80354-0.30022,1.6689-0.44151,2.44595-0.78588c0.8477-0.3797,0.87419-1.00664,0.47683-1.82784   c-0.74173-1.51879-1.73071-3.04641-1.93381-4.65349c-0.21192-1.64241-0.25607-3.5144,0.8477-5.05968   c0.10596-0.15011,0.22075-0.2914,0.35321-0.42385C16.5341,14.44604,18.05289,13.95155,19.57167,13.98687" style="fill:#0CB2E5;"/><path d="   M19.57167,13.98687c1.51879-0.03532,3.03757,0.45917,3.92059,1.36867c0.13245,0.13245,0.24724,0.27374,0.35321,0.42385   c1.10377,1.54528,1.05962,3.41727,0.84769,5.05968c-0.20309,1.60709-1.19207,3.13471-1.9338,4.65349   c-0.39736,0.82121-0.37087,1.44815,0.47683,1.82784c0.77705,0.34438,1.64241,0.48566,2.44596,0.78588   c0.68875,0.26491,1.43048,0.45034,2.12807,0.72407h0.00883c0.53864,0.20309,1.04196,0.45917,1.46581,0.82121   c1.24505,1.05962,0.96249,2.85214,1.00664,4.3621h-7.8765H8.85186c0.04415-1.50996-0.23841-3.30248,1.00664-4.3621   c0.98015-0.83887,2.38414-1.07728,3.60271-1.54528c0.80354-0.30022,1.6689-0.44151,2.44595-0.78588   c0.8477-0.3797,0.87419-1.00664,0.47683-1.82784c-0.74173-1.51879-1.73071-3.04641-1.93381-4.65349   c-0.21192-1.64241-0.25607-3.5144,0.8477-5.05968c0.10596-0.15011,0.22075-0.2914,0.35321-0.42385   C16.5341,14.44604,18.05289,13.95155,19.57167,13.98687" style="fill:none;stroke:#303030;stroke-width:0.7;stroke-linecap:round;stroke-linejoin:round;stroke-miterlimit:10;"/><path d="   M30.77715,18.38429c1.18324-0.02649,2.37531,0.36204,3.06407,1.06845c0.09713,0.10596,0.19426,0.21192,0.27374,0.33555   c0.85653,1.2009,0.83004,2.66671,0.66226,3.94708c-0.15894,1.25388-0.936,2.44596-1.50996,3.6292   c-0.30906,0.6446-0.2914,1.13026,0.37086,1.43049c0.60928,0.2649,1.28038,0.3797,1.90731,0.60928   c0.95366,0.36204,2.0486,0.5563,2.81682,1.20973c0.96249,0.82121,0.74173,2.21637,0.78588,3.39961H31.9339l-0.00031,0.00122   c0-1.58345,0.12935-3.3811-0.9115-4.70623c-0.62841-0.80005-2.72981-1.86619-2.72981-1.86619s-1.34742-2.45322-1.50636-3.70711   c-0.16777-1.28037-0.20309-2.74618,0.66226-3.94708c0.07947-0.12362,0.16777-0.22958,0.27374-0.33555   C28.41067,18.74633,29.59391,18.3578,30.77715,18.38429" style="fill:none;stroke:#303030;stroke-width:0.7;stroke-linecap:round;stroke-linejoin:round;stroke-miterlimit:10;"/><path d="   M17.40042,15.75853c0,0-1.73802,0.82553-1.51415,3.29165" style="fill:none;stroke:#303030;stroke-width:0.7;stroke-linecap:round;stroke-linejoin:round;stroke-miterlimit:10;"/><line style="fill:none;stroke:#303030;stroke-width:0.7;stroke-linecap:round;stroke-linejoin:round;stroke-miterlimit:10;" x1="16.00209" x2="16.19512" y1="20.4014" y2="21.17353"/></g></svg>